<svg xmlns="http://www.w3.org/2000/svg" width="20" height="15" viewBox="0 0 512 512"> <g transform="translate(0, 512) scale(0.1, -0.1)" fill="white" stroke="none"> <path d="M2767 5109 c-104 -24 -202 -101 -278 -217 -72 -110 -107 -214 -178 -532 -49 -216 -76 -279 -160 -375 -33 -38 -169 -204 -302 -368 -132 -164 -278 -336 -324 -382 l-84 -84 -473 -3 -473 -3 -65 -31 c-83 -39 -155 -111 -194 -194 l-31 -65 0 -1085 0 -1085 27 -57 c56 -121 176 -209 309 -228 35 -5 269 -10 520 -10 l457 0 86 -25 c48 -14 216 -67 374 -119 404 -133 608 -187 832 -223 168 -26 866 -27 983 -1 207 47 332 113 467 248 151 151 218 302 241 545 10 98 14 115 44 161 106 162 148 318 144 529 -2 105 0 113 29 175 69 142 98 355 69 500 l-15 75 33 60 c84 152 120 308 112 485 -9 210 -73 349 -236 510 -107 106 -186 157 -306 198 -80 26 -80 27 -427 30 -192 2 -348 7 -348 12 0 4 9 30 21 57 72 164 108 316 116 490 17 377 -83 671 -288 839 -61 50 -163 102 -259 134 -129 42 -331 61 -423 39z m327 -418 c152 -53 222 -175 246 -426 19 -206 -5 -314 -144 -634 -96 -222 -124 -310 -140 -433 l-6 -47 588 -3 587 -3 65 -31 c75 -36 161 -117 195 -184 31 -62 49 -153 41 -217 -8 -64 -54 -194 -89 -250 -28 -45 -85 -93 -109 -93 -27 0 -27 -12 -2 -49 57 -87 89 -237 73 -347 -12 -85 -42 -154 -102 -233 l-48 -64 23 -61 c34 -89 32 -224 -5 -319 -32 -82 -75 -147 -126 -187 l-38 -31 5 -132 c5 -143 -6 -211 -50 -304 -50 -107 -176 -195 -328 -230 -114 -25 -654 -25 -835 1 -203 29 -491 105 -850 225 -358 120 -432 139 -572 148 l-93 6 0 984 0 983 69 0 c37 0 83 5 102 11 110 38 299 213 492 458 216 274 289 364 377 466 174 201 203 268 299 682 46 196 70 265 110 313 l29 36 89 -8 c48 -4 115 -16 147 -27z m-2197 -3547 c20 -17 45 -42 56 -56 22 -30 33 -100 23 -153 -8 -43 -68 -113 -113 -132 -81 -34 -185 -1 -238 75 -26 37 -30 53 -30 107 0 54 4 69 30 106 65 93 192 117 272 53z"/> </g> </svg>