<svg xmlns="http://www.w3.org/2000/svg" width="20" height="15" viewBox="0 0 748 1000"> <g transform="translate(0, 1000) scale(0.1, -0.1)" fill="white" stroke="none"> <path d="M2565 9989 c-309 -45 -579 -248 -711 -535 -61 -131 -76 -208 -81 -406 l-5 -177 -602 -4 c-536 -3 -607 -5 -660 -21 -245 -73 -426 -256 -486 -492 -25 -98 -28 -299 -5 -365 23 -63 58 -104 117 -133 l52 -26 3556 0 3556 0 52 26 c59 29 94 70 117 133 23 66 20 267 -5 365 -61 239 -247 425 -486 486 -72 19 -113 20 -624 20 l-548 0 -5 188 c-5 216 -19 279 -92 427 -121 245 -332 418 -605 493 l-95 27 -1190 1 c-655 1 -1217 -2 -1250 -7z m2377 -560 c115 -25 214 -104 265 -214 25 -55 28 -72 31 -207 l4 -148 -1457 0 -1458 0 5 143 c4 114 9 153 27 199 41 105 145 197 255 224 70 17 2249 20 2328 3z"/> <path d="M543 7370 c-87 -18 -164 -92 -184 -177 -5 -25 1 -169 21 -433 45 -612 335 -4567 390 -5330 43 -584 51 -669 69 -742 88 -343 355 -597 706 -669 86 -18 181 -19 2195 -19 2015 0 2109 1 2195 19 385 80 661 363 725 744 6 34 75 953 155 2042 80 1089 183 2509 231 3155 48 656 83 1193 79 1217 -10 66 -62 133 -130 168 l-59 30 -3175 1 c-1747 1 -3195 -2 -3218 -6z m1497 -740 c46 -24 85 -66 106 -115 15 -35 27 -352 100 -2649 61 -1872 81 -2619 74 -2646 -14 -53 -48 -99 -99 -135 -38 -27 -51 -30 -115 -30 -98 0 -158 35 -199 115 l-27 55 -82 2617 c-67 2138 -79 2624 -69 2658 38 128 190 191 311 130z m1793 2 c46 -18 100 -79 115 -131 9 -29 12 -699 12 -2659 l0 -2620 -28 -53 c-49 -94 -167 -142 -267 -109 -53 18 -111 73 -132 128 -17 45 -18 164 -18 2672 0 2542 1 2626 19 2660 64 120 173 162 299 112z m1782 3 c40 -16 94 -71 111 -112 9 -21 14 -74 14 -155 0 -140 -137 -4977 -144 -5084 -9 -144 -90 -228 -221 -228 -75 -1 -136 31 -180 92 -28 41 -30 50 -33 150 -5 163 136 5109 148 5171 27 146 167 222 305 166z"/> </g> </svg>